{
  "accessors": [
    {
      "bufferView": 1,
      "componentType": 5126,
      "count": 1200,
      "max": [
        28.0,
        -14.5,
        38.5
      ],
      "min": [
        -17.0,
        -74.01959991455078,
        -6.5
      ],
      "type": "VEC3"
    },
    {
      "bufferView": 1,
      "byteOffset": 14400,
      "componentType": 5126,
      "count": 1200,
      "max": [
        0.9998667240142822,
        1.0,
        0.9999507069587708
      ],
      "min": [
        -0.9998667240142822,
        -1.0,
        -0.999977171421051
      ],
      "type": "VEC3"
    },
    {
      "bufferView": 0,
      "componentType": 5125,
      "count": 4158,
      "type": "SCALAR"
    },
    {
      "bufferView": 1,
      "byteOffset": 28800,
      "componentType": 5126,
      "count": 735,
      "max": [
        28.5,
        -8.5,
        38.5
      ],
      "min": [
        -16.5,
        -14.5,
        -6.5
      ],
      "type": "VEC3"
    },
    {
      "bufferView": 1,
      "byteOffset": 37620,
      "componentType": 5126,
      "count": 735,
      "max": [
        0.9864123463630676,
        1.0,
        0.9848088622093201
      ],
      "min": [
        -0.9867421984672546,
        -1.0,
        -0.9836607575416565
      ],
      "type": "VEC3"
    },
    {
      "bufferView": 0,
      "byteOffset": 16632,
      "componentType": 5125,
      "count": 4020,
      "type": "SCALAR"
    },
    {
      "bufferView": 1,
      "byteOffset": 46440,
      "componentType": 5126,
      "count": 1011,
      "max": [
        17.06599998474121,
        -68.12090301513672,
        25.0
      ],
      "min": [
        -5.5,
        -82.75700378417969,
        3.867000102996826
      ],
      "type": "VEC3"
    },
    {
      "bufferView": 1,
      "byteOffset": 58572,
      "componentType": 5126,
      "count": 1011,
      "max": [
        0.9973413944244385,
        0.9528630971908569,
        0.9920753240585327
      ],
      "min": [
        -0.9862724542617798,
        -0.9205328226089478,
        -0.987639844417572
      ],
      "type": "VEC3"
    },
    {
      "bufferView": 0,
      "byteOffset": 32712,
      "componentType": 5125,
      "count": 2541,
      "type": "SCALAR"
    },
    {
      "bufferView": 1,
      "byteOffset": 70704,
      "componentType": 5126,
      "count": 1232,
      "max": [
        14.5,
        -71.614501953125,
        24.0
      ],
      "min": [
        -5.5,
        -113.73500061035156,
        4.5
      ],
      "type": "VEC3"
    },
    {
      "bufferView": 1,
      "byteOffset": 85488,
      "componentType": 5126,
      "count": 1232,
      "max": [
        0.984989583492279,
        0.9839031100273132,
        0.9991479516029358
      ],
      "min": [
        -0.989818274974823,
        -0.9819484949111938,
        -0.9921775460243225
      ],
      "type": "VEC3"
    },
    {
      "bufferView": 0,
      "byteOffset": 42876,
      "componentType": 5125,
      "count": 2877,
      "type": "SCALAR"
    }
  ],
  "asset": {
    "extras": {
      "author": "allisondeboy (https://sketchfab.com/allisondeboy)",
      "license": "CC-BY-4.0 (http://creativecommons.org/licenses/by/4.0/)",
      "source": "https://sketchfab.com/3d-models/pineapple-51774e71d21c4b8d8399e5c774693b6e",
      "title": "Pineapple"
    },
    "generator": "Sketchfab-11.83.0",
    "version": "2.0"
  },
  "bufferViews": [
    {
      "buffer": 0,
      "byteLength": 54384,
      "name": "floatBufferViews",
      "target": 34963
    },
    {
      "buffer": 0,
      "byteLength": 100272,
      "byteOffset": 54384,
      "byteStride": 12,
      "name": "floatBufferViews",
      "target": 34962
    }
  ],
  "buffers": [
    {
      "byteLength": 154656,
      "uri": "scene.bin"
    }
  ],
  "materials": [
    {
      "doubleSided": true,
      "name": "color_13873230",
      "pbrMetallicRoughness": {
        "baseColorFactor": [
          0.827451,
          0.690196,
          0.305882,
          1.0
        ],
        "metallicFactor": 0.0
      }
    },
    {
      "doubleSided": true,
      "name": "color_14093196",
      "pbrMetallicRoughness": {
        "baseColorFactor": [
          0.843137,
          0.0431373,
          0.54902,
          1.0
        ],
        "metallicFactor": 0.0
      }
    },
    {
      "doubleSided": true,
      "name": "color_1730561",
      "pbrMetallicRoughness": {
        "baseColorFactor": [
          0.101961,
          0.407843,
          0.00392157,
          1.0
        ],
        "metallicFactor": 0.0
      }
    },
    {
      "doubleSided": true,
      "name": "color_942082",
      "pbrMetallicRoughness": {
        "baseColorFactor": [
          0.054902,
          0.376471,
          0.00784314,
          1.0
        ],
        "metallicFactor": 0.0
      }
    }
  ],
  "meshes": [
    {
      "name": "Object_0",
      "primitives": [
        {
          "attributes": {
            "NORMAL": 1,
            "POSITION": 0
          },
          "indices": 2,
          "material": 0,
          "mode": 4
        }
      ]
    },
    {
      "name": "Object_1",
      "primitives": [
        {
          "attributes": {
            "NORMAL": 4,
            "POSITION": 3
          },
          "indices": 5,
          "material": 1,
          "mode": 4
        }
      ]
    },
    {
      "name": "Object_2",
      "primitives": [
        {
          "attributes": {
            "NORMAL": 7,
            "POSITION": 6
          },
          "indices": 8,
          "material": 2,
          "mode": 4
        }
      ]
    },
    {
      "name": "Object_3",
      "primitives": [
        {
          "attributes": {
            "NORMAL": 10,
            "POSITION": 9
          },
          "indices": 11,
          "material": 3,
          "mode": 4
        }
      ]
    }
  ],
  "nodes": [
    {
      "children": [
        1
      ],
      "matrix": [
        1.0,
        0.0,
        0.0,
        0.0,
        0.0,
        2.220446049250313e-16,
        -1.0,
        0.0,
        0.0,
        1.0,
        2.220446049250313e-16,
        0.0,
        0.0,
        0.0,
        0.0,
        1.0
      ],
      "name": "Sketchfab_model"
    },
    {
      "children": [
        2,
        3,
        4,
        5
      ],
      "name": "tinker.obj.cleaner.materialmerger.gles"
    },
    {
      "mesh": 0,
      "name": "Object_2"
    },
    {
      "mesh": 1,
      "name": "Object_3"
    },
    {
      "mesh": 2,
      "name": "Object_4"
    },
    {
      "mesh": 3,
      "name": "Object_5"
    }
  ],
  "scene": 0,
  "scenes": [
    {
      "name": "Sketchfab_Scene",
      "nodes": [
        0
      ]
    }
  ]
}
